<svg width="25" height="24" viewBox="0 0 25 24" fill="none" xmlns="http://www.w3.org/2000/svg">
<path d="M21.0937 13.6399V14.6399C21.0937 14.9099 20.8921 15.1299 20.6233 15.1399H19.2217C18.7129 15.1399 18.2521 14.7499 18.2137 14.2299C18.1849 13.9199 18.3001 13.6299 18.4921 13.4299C18.6649 13.2399 18.9049 13.1399 19.1641 13.1399H20.6137C20.8921 13.1499 21.0937 13.3699 21.0937 13.6399Z" fill="#333333"/>
<path d="M17.7724 12.6899C17.2924 13.1799 17.062 13.9099 17.254 14.6699C17.5036 15.5999 18.3772 16.1899 19.2988 16.1899H20.134C20.662 16.1899 21.094 16.6399 21.094 17.1899V17.3799C21.094 19.4499 19.4716 21.1399 17.4844 21.1399H6.4636C4.4764 21.1399 2.854 19.4499 2.854 17.3799V10.6499C2.854 9.41989 3.4204 8.32989 4.294 7.64989C4.8988 7.16989 5.6476 6.88989 6.4636 6.88989H17.4844C19.4716 6.88989 21.094 8.57989 21.094 10.6499V11.0899C21.094 11.6399 20.662 12.0899 20.134 12.0899H19.1548C18.6172 12.0899 18.1276 12.3099 17.7724 12.6899Z" fill="#333333"/>
<path d="M16.054 4.82C16.3132 5.09 16.0924 5.51 15.7276 5.51L8.35478 5.5C7.93238 5.5 7.71159 4.96 8.01879 4.65L9.57399 3.02C10.8892 1.66 13.0204 1.66 14.3356 3.02L16.0156 4.79C16.0252 4.8 16.0444 4.81 16.054 4.82Z" fill="#333333"/>
</svg>
